<?xml version="1.0" encoding="UTF-8" standalone="no"?>
<!DOCTYPE svg PUBLIC "-//W3C//DTD SVG 1.1//EN" "http://www.w3.org/Graphics/SVG/1.1/DTD/svg11.dtd">
<svg width="100%" height="100%" viewBox="0 0 40 24" version="1.1" xmlns="http://www.w3.org/2000/svg" xmlns:xlink="http://www.w3.org/1999/xlink" xml:space="preserve" xmlns:serif="http://www.serif.com/" style="fill-rule:evenodd;clip-rule:evenodd;stroke-linejoin:round;stroke-miterlimit:2;">
    <g transform="matrix(1,0,0,0.849206,2.52435e-29,-5.09524)">
        <path d="M40,6.9C40,6.403 39.658,6 39.236,6L0.764,6C0.342,6 0,6.403 0,6.9L0,11.1C0,11.597 0.342,12 0.764,12L39.236,12C39.658,12 40,11.597 40,11.1L40,6.9Z"/>
    </g>
    <g transform="matrix(1,0,0,0.849206,2.52435e-29,13.8095)">
        <path d="M40,6.9C40,6.403 39.658,6 39.236,6L0.764,6C0.342,6 0,6.403 0,6.9L0,11.1C0,11.597 0.342,12 0.764,12L39.236,12C39.658,12 40,11.597 40,11.1L40,6.9Z"/>
    </g>
</svg>
