<?xml version="1.0" encoding="UTF-8" standalone="no"?>
<!DOCTYPE svg PUBLIC "-//W3C//DTD SVG 1.1//EN" "http://www.w3.org/Graphics/SVG/1.1/DTD/svg11.dtd">
<svg width="100%" height="100%" viewBox="0 0 28 16" version="1.1" xmlns="http://www.w3.org/2000/svg" xmlns:xlink="http://www.w3.org/1999/xlink" xml:space="preserve" xmlns:serif="http://www.serif.com/" style="fill-rule:evenodd;clip-rule:evenodd;stroke-linejoin:round;stroke-miterlimit:2;">
    <g transform="matrix(0.7,0,0,0.6,-7.10543e-15,8.84444)">
        <path d="M40,7.65C40,6.739 39.366,6 38.586,6L1.414,6C0.634,6 0,6.739 0,7.65L0,10.35C0,11.261 0.634,12 1.414,12L38.586,12C39.366,12 40,11.261 40,10.35L40,7.65Z"/>
    </g>
    <g transform="matrix(0.7,0,0,0.6,-7.10543e-15,-3.6)">
        <path d="M40,7.65C40,6.739 39.366,6 38.586,6L1.414,6C0.634,6 0,6.739 0,7.65L0,10.35C0,11.261 0.634,12 1.414,12L38.586,12C39.366,12 40,11.261 40,10.35L40,7.65Z"/>
    </g>
</svg>
